C:\My Captures\DataSMARTClinic\0004~001 ID\0004~aa~STRATO_01\Standing_STRATO_ID_01.mot
version=1
nRows=97
nColumns=10
inDegrees=yes

BTS OpenSim export

endheader
time	[P0]_force_vx	[P0]_force_vy	[P0]_force_vz	[P0]_force_px	[P0]_force_py	[P0]_force_pz	[P0]_torque_x	[P0]_torque_y	[P0]_torque_z
8.064000	-1.85317051	657.99987793	5.11916018	0.85431105	0.00204494	0.20146625	0.00464575	-0.93730837	-0.00028465
8.068000	-1.85576642	658.52362061	5.11931944	0.85434520	0.00204511	0.20146784	0.00464493	-0.93714285	-0.00028460
8.072000	-1.85185254	657.73394775	5.11907959	0.85397875	0.00204328	0.20153278	0.00465432	-0.93903685	-0.00028517
8.076000	-2.92646813	657.47088623	5.12577057	0.85424012	0.00204459	0.20146489	0.00465921	-0.94002438	-0.00028547
8.080000	-2.92776656	657.73284912	5.12585020	0.85436273	0.00204518	0.20153031	0.00465633	-0.93944222	-0.00028529
8.084000	-2.38980889	657.73327637	5.12246466	0.85416996	0.00204422	0.20153208	0.00509263	-1.02746868	-0.00031203
8.088000	-1.86123013	658.26019287	4.04333305	0.85422385	0.00204450	0.20149566	0.00441977	-0.89171600	-0.00027080
8.092000	-2.38982010	657.73553467	5.12246561	0.85438108	0.00204527	0.20153020	0.00508747	-1.02642763	-0.00031171
8.096000	-2.93036103	658.25628662	5.12600899	0.85418594	0.00204434	0.20140269	0.00466043	-0.94027078	-0.00028555
8.100000	-1.85706639	658.78588867	5.11939907	0.85446906	0.00204571	0.20153211	0.00464236	-0.93662393	-0.00028444
8.104000	-1.85445929	658.25988770	5.11923933	0.85422409	0.00204449	0.20153244	0.00464833	-0.93782943	-0.00028480
8.108000	-2.39112830	657.99951172	5.12254572	0.85450375	0.00204590	0.20146449	0.00508419	-1.02576673	-0.00031151
8.112000	-2.93165112	658.51660156	5.12608814	0.85430980	0.00204490	0.20159800	0.00465773	-0.93972546	-0.00028538
8.116000	-1.85575795	658.52191162	5.11931849	0.85434651	0.00204508	0.20159777	0.00464580	-0.93731898	-0.00028465
8.120000	-2.39501286	658.78320313	5.12278366	0.85445070	0.00204561	0.20153223	0.00508578	-1.02608693	-0.00031161
8.124000	-2.93165112	658.51660156	5.12608814	0.85430980	0.00204490	0.20159800	0.00465773	-0.93972546	-0.00028538
8.128000	-2.39500189	658.78094482	5.12278271	0.85423982	0.00204457	0.20153411	0.00509093	-1.02712643	-0.00031192
8.132000	-2.39502263	658.78515625	5.12278414	0.85465997	0.00204665	0.20153141	0.00508067	-1.02505589	-0.00031129
8.136000	-2.92828465	658.52038574	5.66416454	0.85451937	0.00204597	0.20148458	0.00406174	-0.81947982	-0.00024886
8.140000	-2.39370465	658.51922607	5.12270355	0.85432816	0.00204499	0.20159788	0.00508905	-1.02674711	-0.00031181
8.144000	-2.39840817	658.78533936	4.58483124	0.85465986	0.00204666	0.20151304	0.00426368	-0.86022294	-0.00026124
8.148000	-2.93894100	659.30444336	4.58837414	0.85446614	0.00204570	0.20151553	0.00524419	-1.05804741	-0.00032131
8.152000	-2.38903093	658.25933838	5.66069984	0.85462618	0.00204644	0.20167929	0.00449116	-0.90611899	-0.00027517
8.156000	-2.39631128	659.04516602	5.12286329	0.85457295	0.00204620	0.20159750	0.00508308	-1.02554178	-0.00031144
8.160000	-2.39372540	658.52343750	5.12270451	0.85474849	0.00204707	0.20159519	0.00507879	-1.02467585	-0.00031118
8.164000	-2.93425918	659.04278564	5.12624788	0.85476518	0.00204711	0.20172663	0.00464682	-0.93752468	-0.00028471
8.168000	-1.85707724	658.78808594	5.11939955	0.85488904	0.00204775	0.20166035	0.00463301	-0.93473834	-0.00028387
8.172000	-2.93425918	659.04278564	5.12624788	0.85476518	0.00204711	0.20172663	0.00464682	-0.93752468	-0.00028471
8.176000	-2.39241719	658.25946045	5.12262440	0.85462606	0.00204644	0.20166090	0.00508206	-1.02533567	-0.00031138
8.180000	-2.39711213	658.52386475	4.58475161	0.85495913	0.00204808	0.20170592	0.00425800	-0.85907781	-0.00026089
8.184000	-2.39711094	658.52362061	4.58475161	0.85474837	0.00204708	0.20157681	0.00566988	-1.14393163	-0.00034739
8.188000	-2.93037486	658.25909424	5.12600994	0.85481864	0.00204740	0.20165914	0.00464541	-0.93723905	-0.00028462
8.192000	-2.39580369	658.25988770	4.58467150	0.85483682	0.00204746	0.20177168	0.00426094	-0.85967124	-0.00026107
8.196000	-1.85578001	658.52636719	5.11931992	0.85497761	0.00204817	0.20172419	0.00463130	-0.93439245	-0.00028376
8.200000	-1.85706878	658.78637695	5.11939907	0.85489047	0.00204772	0.20179023	0.00463388	-0.93491435	-0.00028392
8.204000	-2.39450502	657.99786377	4.58459187	0.85471451	0.00204687	0.20170639	0.00426332	-0.86015105	-0.00026121
8.208000	-2.93375039	658.25720215	4.58805609	0.85481846	0.00204736	0.20177180	0.00382910	-0.77254438	-0.00023461
8.212000	-2.92906618	657.99505615	5.12592983	0.85469621	0.00204677	0.20172490	0.00464851	-0.93786412	-0.00028481
8.216000	-2.92905784	657.99334717	5.12592936	0.85469759	0.00204674	0.20185493	0.00464868	-0.93790042	-0.00028483
8.220000	-2.39113069	658.00000000	5.12254572	0.85492563	0.00204791	0.20172291	0.00507501	-1.02391469	-0.00031095
8.224000	-1.85786831	658.26483154	4.58128738	0.85506618	0.00204859	0.20176968	0.00522147	-1.05346239	-0.00031992
8.228000	-2.39709234	658.51989746	4.58475065	0.85474968	0.00204700	0.20183773	0.00426312	-0.86011064	-0.00026120
8.232000	-2.93035603	658.25531006	5.12600899	0.85481995	0.00204733	0.20192017	0.00464581	-0.93731940	-0.00028465
8.236000	-2.39242959	658.26196289	5.12262535	0.85504794	0.00204850	0.20178819	0.00507231	-1.02336979	-0.00031078
8.240000	-2.39579487	658.25811768	4.58467102	0.85483825	0.00204742	0.20190166	0.00426147	-0.85977775	-0.00026110
8.244000	-2.38641644	657.73187256	5.66053963	0.85459358	0.00204620	0.20193909	0.00449317	-0.90652376	-0.00027530
8.248000	-2.39112091	657.99798584	5.12254524	0.85492551	0.00204787	0.20185401	0.00507558	-1.02402925	-0.00031098
8.252000	-1.85575163	658.52062988	5.11931849	0.85476959	0.00204706	0.20198593	0.00463820	-0.93578464	-0.00028418
8.256000	-1.85576034	658.52239990	5.11931896	0.85476816	0.00204709	0.20185599	0.00463733	-0.93560863	-0.00028413
8.260000	-2.39318824	657.73217773	4.58451128	0.85459340	0.00204621	0.20190229	0.00426680	-0.86085194	-0.00026143
8.264000	-1.85185730	657.73492432	5.11907959	0.85482293	0.00204730	0.20204984	0.00463734	-0.93561208	-0.00028413
8.268000	-2.39318943	657.73242188	4.58451128	0.85480440	0.00204722	0.20203155	0.00567061	-1.14408004	-0.00034744
8.272000	-1.85315454	657.99664307	5.11915922	0.85473430	0.00204688	0.20198579	0.00463906	-0.93595791	-0.00028424
8.276000	-2.39190078	657.47241211	4.58443213	0.85489166	0.00204767	0.20196550	0.00426058	-0.85959858	-0.00026105
8.280000	-1.86252367	658.52117920	4.04341221	0.85498011	0.00204807	0.20207827	0.00440941	-0.88962579	-0.00027017
8.284000	-2.39238977	658.25396729	5.12262297	0.85462874	0.00204634	0.20205191	0.00508368	-1.02566254	-0.00031148
8.288000	-2.39448786	657.99438477	4.58459091	0.85492676	0.00204780	0.20209673	0.00426039	-0.85955858	-0.00026103
8.292000	-2.39239979	658.25598145	5.12262344	0.85483825	0.00204738	0.20205109	0.00507856	-1.02463067	-0.00031116
8.296000	-2.38978434	657.72833252	5.12246323	0.85459477	0.00204613	0.20218192	0.00508507	-1.02594304	-0.00031156
8.300000	-2.92775059	657.72961426	5.12584925	0.85478616	0.00204712	0.20205007	0.00464685	-0.93752921	-0.00028471
8.304000	-2.38979506	657.73052979	5.12246370	0.85480595	0.00204718	0.20218004	0.00507991	-1.02490187	-0.00031125
8.308000	-2.93033767	658.25158691	5.12600756	0.85482126	0.00204725	0.20218119	0.00464620	-0.93739969	-0.00028467
8.312000	-2.38979506	657.73052979	5.12246370	0.85480595	0.00204718	0.20218004	0.00507991	-1.02490187	-0.00031125
8.316000	-2.92643332	657.46386719	5.12576866	0.85466498	0.00204646	0.20224617	0.00465013	-0.93819112	-0.00028491
8.320000	-1.85442483	658.25292969	5.11923695	0.85464847	0.00204636	0.20231281	0.00464343	-0.93684071	-0.00028450
8.324000	-2.92902088	657.98590088	5.12592697	0.85470021	0.00204659	0.20237719	0.00464948	-0.93806106	-0.00028487
8.328000	-2.39446926	657.99066162	4.58458948	0.85492802	0.00204773	0.20235786	0.00426148	-0.85977924	-0.00026110
8.332000	-2.93032765	658.24957275	5.12600708	0.85461175	0.00204622	0.20218199	0.00465132	-0.93843186	-0.00028499
8.336000	-2.39316106	657.72668457	4.58450937	0.85459608	0.00204610	0.20229360	0.00426842	-0.86117929	-0.00026153
8.340000	-2.39575815	658.25067139	4.58466864	0.85484087	0.00204728	0.20242371	0.00426366	-0.86021882	-0.00026124
8.344000	-2.92902088	657.98590088	5.12592697	0.85470021	0.00204659	0.20237719	0.00464948	-0.93806106	-0.00028487
8.348000	-2.39236259	658.24847412	5.12262106	0.85463148	0.00204623	0.20244291	0.00508530	-1.02598941	-0.00031158
8.352000	-2.92902088	657.98590088	5.12592697	0.85470021	0.00204659	0.20237719	0.00464948	-0.93806106	-0.00028487
8.356000	-2.93628216	658.76800537	4.58821106	0.85464823	0.00204628	0.20255536	0.00524193	-1.05759048	-0.00032117
8.360000	-2.39833546	658.77069092	4.58482647	0.85466659	0.00204637	0.20255524	0.00567586	-1.14513826	-0.00034776
8.364000	-2.39832425	658.76843262	4.58482599	0.85445577	0.00204533	0.20255712	0.00568045	-1.14606428	-0.00034804
8.368000	-2.93368506	658.24401855	4.58805227	0.85461283	0.00204611	0.20255569	0.00524270	-1.05774558	-0.00032122
8.372000	-2.93028951	658.24188232	5.12600470	0.85440350	0.00204506	0.20257489	0.00465705	-0.93958843	-0.00028534
8.376000	-1.86375463	658.76953125	4.04348755	0.85447544	0.00204539	0.20266850	0.00442313	-0.89239264	-0.00027101
8.380000	-2.39494014	658.76849365	5.12277889	0.85466659	0.00204633	0.20270455	0.00508557	-1.02604425	-0.00031159
8.384000	-2.39909410	658.24084473	4.04671240	0.85421205	0.00204409	0.20266986	0.00486810	-0.98216814	-0.00029827
8.388000	-2.93626237	658.76403809	4.58821011	0.85443878	0.00204520	0.20268711	0.00383885	-0.77451134	-0.00023521
8.392000	-2.39570999	658.24096680	4.58466578	0.85442305	0.00204509	0.20281741	0.00480770	-0.96998328	-0.00029457
8.396000	-2.40170121	658.76684570	4.04687214	0.85445702	0.00204530	0.20266862	0.00486342	-0.98122466	-0.00029798
8.400000	-2.93285704	658.75988770	5.12616205	0.85422951	0.00204412	0.20283724	0.00466173	-0.94053268	-0.00028563
8.404000	-2.40298009	659.02484131	4.04695034	0.85437000	0.00204481	0.20286515	0.00486592	-0.98172921	-0.00029814
8.408000	-2.93155980	658.49816895	5.12608242	0.85431778	0.00204454	0.20290154	0.00465968	-0.94011897	-0.00028550
8.412000	-2.93362689	658.23229980	4.58804846	0.85398567	0.00204288	0.20295021	0.00525698	-1.06062782	-0.00032210
8.416000	-2.39698863	658.49896240	4.58474398	0.85433602	0.00204460	0.20301405	0.00427717	-0.86294419	-0.00026206
8.420000	-2.40166283	658.75909424	4.04686975	0.85424894	0.00204415	0.20306121	0.00486907	-0.98236424	-0.00029833
8.424000	-2.93362689	658.23229980	4.58804846	0.85398567	0.00204288	0.20295021	0.00525698	-1.06062782	-0.00032210
8.428000	-2.92895269	657.97216797	5.12592268	0.85407263	0.00204332	0.20290297	0.00466567	-0.94132727	-0.00028587
8.432000	-1.85772526	658.23596191	4.58127880	0.85423315	0.00204403	0.20321019	0.00384174	-0.77509439	-0.00023538
8.436000	-2.39903617	658.22912598	4.04670906	0.85379422	0.00204186	0.20319463	0.00487831	-0.98422867	-0.00029889
8.440000	-2.39773893	657.96740723	4.04662943	0.85388243	0.00204227	0.20325913	0.00487690	-0.98394501	-0.00029881
8.444000	-2.39904737	658.23138428	4.04670954	0.85400522	0.00204290	0.20319274	0.00487428	-0.98341542	-0.00029865
8.448000	-1.86110067	658.23406982	4.04332495	0.85402358	0.00204299	0.20319262	0.00443538	-0.89486384	-0.00027176
